<?xml version="1.0" encoding="UTF-8" standalone="no"?>
<!-- Created with Inkscape (http://www.inkscape.org/) -->

<svg
   version="1.1"
   id="svg1"
   width="1920"
   height="1080"
   viewBox="0 0 1920 1080"
   sodipodi:docname="ENCRIPTAR (1).svg"
   inkscape:version="1.3.2 (091e20e, 2023-11-25, custom)"
   xmlns:inkscape="http://www.inkscape.org/namespaces/inkscape"
   xmlns:sodipodi="http://sodipodi.sourceforge.net/DTD/sodipodi-0.dtd"
   xmlns="http://www.w3.org/2000/svg"
   xmlns:svg="http://www.w3.org/2000/svg">
  <defs
     id="defs1" />
  <sodipodi:namedview
     id="namedview1"
     pagecolor="#505050"
     bordercolor="#ffffff"
     borderopacity="1"
     inkscape:showpageshadow="0"
     inkscape:pageopacity="0"
     inkscape:pagecheckerboard="1"
     inkscape:deskcolor="#505050"
     showgrid="false"
     inkscape:zoom="0.5671875"
     inkscape:cx="960"
     inkscape:cy="540.38567"
     inkscape:window-width="1920"
     inkscape:window-height="1017"
     inkscape:window-x="-8"
     inkscape:window-y="-8"
     inkscape:window-maximized="1"
     inkscape:current-layer="g1" />
  <g
     inkscape:groupmode="layer"
     inkscape:label="Image"
     id="g1">
    <path
       style="fill:#999999"
       d="m 921.5,1024.8312 c -14.71757,-1.0852 -42.07109,-4.9694 -59.21602,-8.4087 C 738.72932,991.63773 626.42445,916.23794 556.31561,811 508.46879,739.17881 481.59866,661.5096 475.03328,576.05011 473.46814,555.67719 473.74023,510.5989 475.53601,492.75913 491.28257,336.32888 579.92736,198.86854 716.5,119.09939 774.32268,85.326405 839.60689,63.977069 908,56.474787 c 19.86929,-2.179533 64.55175,-3.01103 84.5,-1.572463 113.3353,8.173165 214.1223,51.757646 297.5367,128.667136 44.2298,40.78057 79.5585,88.49918 106.5598,143.93054 15.6754,32.18037 26.0044,60.28949 34.31,93.37061 12.1713,48.47826 17.6522,108.32722 14.0787,153.73417 -6.8331,86.82442 -33.997,165.34165 -81.9567,236.89522 -47.2456,70.48813 -115.3184,129.38095 -192.5285,166.56489 -55.1074,26.53941 -115.1,42.54911 -175.68739,46.88421 -17.07741,1.2219 -55.99076,1.1593 -73.31261,-0.1179 z m 60.67045,-81.84354 c 37.78205,-2.49508 70.22335,-8.60952 102.93715,-19.40129 103.2946,-34.07527 187.6471,-107.25399 236.8361,-205.46362 23.7827,-47.48381 37.8562,-101.1733 41.021,-156.49273 1.0954,-19.14611 0.2237,-42.20574 -2.5375,-67.13002 -12.984,-117.19787 -77.2916,-222.99673 -175.9272,-289.43519 -18.0376,-12.14965 -29.9245,-18.96248 -49.8584,-28.57561 -38.1203,-18.38355 -74.1692,-29.5887 -113.9267,-35.41209 -20.3446,-2.97992 -20.96945,-3.04097 -41.44493,-4.04904 -134.74951,-6.63411 -262.2965,53.94391 -344.19001,163.47193 -55.55282,74.2988 -83.8482,168.63471 -78.19359,260.69502 3.61064,58.78334 16.3266,107.11379 41.65077,158.30498 20.52014,41.48015 46.19742,76.51812 80.61832,110.00784 45.45488,44.22521 96.62271,75.06707 157.34454,94.84078 46.33884,15.08998 98.44808,21.75754 145.67045,18.63904 z M 945,851.4334 C 934.40859,849.13979 926.42942,844.60885 917.97276,836.08608 905.67411,823.69129 900.741,810.94922 900.7112,791.5 c -0.0141,-9.21588 0.41168,-12.31026 2.62528,-19.07841 3.29738,-10.0819 8.57315,-18.31305 16.29398,-25.42159 11.02745,-10.15291 24.09966,-15.01534 40.2795,-14.98264 35.86747,0.0725 59.08684,23.82804 59.19974,60.56675 0.058,18.97309 -5.0316,31.78091 -17.7192,44.58672 C 988.3287,850.35439 966.04439,855.99064 945,851.4334 Z m 8,-186.47286 C 938.48448,663.5648 927.28999,657.9131 923.3672,650 921.28206,645.79382 920.21291,633.97559 906.9928,469 895.7027,328.1093 893.06592,291.77126 893.9234,288.88796 c 1.31208,-4.41185 8.94014,-11.7828 15.69381,-15.16485 12.94942,-6.48469 29.72894,-9.79821 49.90384,-9.85469 33.44241,-0.0936 59.79605,9.67518 65.96945,24.45363 1.5174,3.6325 0.8997,12.53474 -12.4549,179.5 -7.7282,96.62287 -14.5172,177.36982 -15.08654,179.43767 -3.22223,11.70311 -23.6527,19.74858 -44.94906,17.70082 z"
       id="path1" />
  </g>
</svg>
