<?xml version="1.0" encoding="UTF-8" standalone="no"?>
<!-- Created with Inkscape (http://www.inkscape.org/) -->

<svg
   version="1.1"
   id="svg1"
   width="1920"
   height="1080"
   viewBox="0 0 1920 1080"
   sodipodi:docname="ENCRIPTAR.svg"
   inkscape:version="1.3.2 (091e20e, 2023-11-25, custom)"
   xmlns:inkscape="http://www.inkscape.org/namespaces/inkscape"
   xmlns:sodipodi="http://sodipodi.sourceforge.net/DTD/sodipodi-0.dtd"
   xmlns="http://www.w3.org/2000/svg"
   xmlns:svg="http://www.w3.org/2000/svg">
  <defs
     id="defs1" />
  <sodipodi:namedview
     id="namedview1"
     pagecolor="#505050"
     bordercolor="#ffffff"
     borderopacity="1"
     inkscape:showpageshadow="0"
     inkscape:pageopacity="0"
     inkscape:pagecheckerboard="1"
     inkscape:deskcolor="#505050"
     showgrid="false"
     inkscape:zoom="0.57447917"
     inkscape:cx="960"
     inkscape:cy="540.48957"
     inkscape:window-width="1920"
     inkscape:window-height="1017"
     inkscape:window-x="-8"
     inkscape:window-y="-8"
     inkscape:window-maximized="1"
     inkscape:current-layer="g1" />
  <g
     inkscape:groupmode="layer"
     inkscape:label="Image"
     id="g1">
    <path
       style="fill:#ffffff"
       d="m 154.48141,773.49602 c -23.66339,-1.67342 -53.47316,-9.51827 -72.499999,-19.07937 -14.73596,-7.40492 -13.36571,-2.20518 -11.88502,-45.10065 0.69959,-20.2672 1.40992,-37.8172 1.5785,-39 0.24441,-1.71473 1.2655,-0.72692 5.03855,4.87434 14.80041,21.97184 36.153669,35.55684 64.696899,41.16032 10.11277,1.98529 36.629,2.21217 47.57107,0.40702 17.15712,-2.83046 31.26341,-9.91515 37.99158,-19.08076 5.24462,-7.1446 6.84212,-12.68598 6.30952,-21.88629 -1.21732,-21.02858 -16.46287,-30.24974 -57.3011,-34.65815 -26.97273,-2.91166 -43.97965,-7.2106 -59.9859,-15.163 -23.822329,-11.83568 -37.618959,-28.5122 -43.685239,-52.80403 -1.89946,-7.6062 -2.24206,-11.63273 -2.21223,-26 0.0298,-14.34002 0.37904,-18.25175 2.23222,-25 4.22495,-15.38491 11.32823,-27.54455 22.39174,-38.33098 8.873569,-8.65134 14.534279,-12.58322 26.259409,-18.23955 32.50906,-15.68274 81.58701,-15.74165 121.31636,-0.14562 14.38811,5.64815 23.18249,10.77387 23.18832,13.51509 0.009,4.08013 -4.21709,66.19782 -4.52603,66.53137 -0.16827,0.18167 -4.2823,-3.68433 -9.14229,-8.59112 -7.69753,-7.77164 -10.1896,-9.58496 -19.33636,-14.06975 -13.53632,-6.63707 -25.11341,-9.87184 -42.5,-11.87497 -27.32275,-3.14788 -46.56261,1.63806 -56.36504,14.0209 -5.71446,7.21873 -6.40975,19.84594 -1.66206,30.18463 6.28397,13.68412 21.10832,20.54033 56.0868,25.93994 43.60701,6.73159 66.47238,15.7423 83.92529,33.07298 6.33228,6.28794 8.97058,9.83999 12.25547,16.5 7.63122,15.47209 10.26464,31.46815 8.42956,51.20313 -2.27104,24.42346 -9.34318,40.71987 -24.54108,56.55036 -20.438,21.28869 -48.03087,32.71351 -85.12894,35.24762 -7.7,0.52597 -14.45,0.89875 -15,0.82841 -0.55,-0.0703 -6.625,-0.52569 -13.5,-1.01187 z m 1149.99999,0 c -15.6526,-1.10692 -33.6138,-4.70367 -49.9099,-9.99453 -12.4751,-4.05031 -29.5648,-11.87842 -33.7756,-15.47126 l -2.1856,-1.86478 1.3455,-38.32663 c 0.7401,-21.07965 1.5495,-38.53055 1.7987,-38.7798 0.2492,-0.24924 2.4272,2.58158 4.84,6.29071 21.6418,33.26956 62.8786,48.31135 112.8869,41.17733 25.5002,-3.63778 42.4444,-17.54953 43.7698,-35.93657 1.6967,-23.53978 -14.5946,-34.84538 -56.7698,-39.39608 -24.6529,-2.66004 -37.5371,-5.47394 -52.5042,-11.46689 -28.3723,-11.36046 -44.6735,-28.90389 -51.6281,-55.56207 -2.034,-7.79671 -2.3467,-11.33973 -2.3392,-26.5 0.01,-20.70436 1.172,-26.39477 8.4721,-41.5 12.6057,-26.0836 37.4355,-43.57355 70.8614,-49.91434 34.6932,-6.58118 80.3506,0.51149 110.0151,17.09033 l 6.377,3.564 -0.6034,7.13001 c -0.3319,3.9215 -1.3449,19.055 -2.2511,33.63 -0.9063,14.575 -2.0461,26.93167 -2.5329,27.45927 -0.5469,0.59258 -1.5099,0.0192 -2.5195,-1.5 -3.1711,-4.77215 -14.0754,-14.50485 -20.4225,-18.22828 -13.7919,-8.09088 -30.1863,-12.78883 -51.785,-14.83939 -36.9163,-3.50479 -59.8342,10.19484 -56.8015,33.95433 2.0457,16.02738 9.6133,23.83185 29.1981,30.11191 9.2091,2.95301 15.6771,4.27812 39.2925,8.04993 36.7478,5.86929 64.7277,18.58796 78.847,35.84095 5.3508,6.53842 11.5867,19.00737 13.8288,27.65128 2.5364,9.77858 3.4795,23.78005 2.4214,35.94945 -1.1252,12.94056 -3.6619,22.94564 -8.4394,33.28586 -12.8702,27.85583 -42.1026,48.45129 -79.1255,55.74717 -6.9909,1.37766 -31.8612,3.66181 -36.3611,3.3395 -0.825,-0.0591 -7.125,-0.50523 -14,-0.99141 z m -762.24999,-4.57986 -26.75,-0.28338 V 613.89606 459.15934 l 24.75,0.003 c 13.6125,0.002 26.77986,-0.31108 29.26079,-0.69502 l 4.5108,-0.69809 37.9892,64.57367 c 20.89407,35.51552 38.47244,65.24586 39.06305,66.06742 0.85,1.18237 8.87298,-12.30052 38.48779,-64.68004 33.60604,-59.43878 37.61873,-66.09893 39.42615,-65.43836 1.10672,0.40453 15.51222,0.84307 32.01222,0.97459 l 30,0.23912 0.25317,154.11008 c 0.20171,122.78999 -0.002,154.19344 -1,154.52025 -0.68925,0.22559 -14.63859,0.56181 -30.99855,0.74716 l -29.74538,0.33699 -0.25462,-103.13513 -0.25462,-103.13513 -37.35579,66.8578 c -20.54568,36.77179 -37.68173,66.8578 -38.08011,66.8578 -0.39838,0 -17.56327,-27.66822 -38.14421,-61.48493 l -37.41989,-61.48492 -0.2549,97.98492 -0.2549,97.98493 -4.2451,-0.23296 c -2.33481,-0.12813 -16.2826,-0.36048 -30.9951,-0.51633 z m 329.25079,-154.75071 -7.9e-4,-155 h 32 32 v 126.88941 126.88942 l 39.24996,-0.51713 c 21.5875,-0.28443 39.92503,-0.68466 40.75003,-0.88942 1.2945,-0.32128 1.4636,1.81961 1.2342,15.62772 -0.1461,8.8 -0.5237,21.85 -0.839,29 l -0.5733,13 H 943.39315 871.483 Z m 659.7492,154.75096 -22.75,-0.28851 -10e-5,-154.73122 -2e-4,-154.73123 h 25.7502 c 14.1625,0 27.6626,-0.34282 30.0001,-0.76182 l 4.25,-0.76182 v 62.01182 62.01182 h 54.5 54.5 V 520.24282 458.8202 l 26.75,0.17262 c 14.7125,0.095 28.325,-0.0524 30.25,-0.32737 l 3.5,-0.5 0.2531,155.897 0.2532,155.897 -7.654,-0.647 c -4.2097,-0.35585 -17.9362,-0.647 -30.5032,-0.647 h -22.8491 v -65.5 -65.5 h -54.5 -54.5 v 66 66 l -7.25,-0.23027 c -3.9875,-0.12664 -17.4875,-0.36009 -30,-0.51877 z M 363.48111,613.91545 l -3e-4,-154.75 h 28.7503 c 15.81267,0 30.2128,-0.32625 32.0003,-0.725 l 3.25,-0.725 v 155.475 155.475 h -32 -32 z m 713.99999,0 -3e-4,-154.75 h 29.2503 c 16.0877,0 30.7128,-0.32625 32.5003,-0.725 l 3.25,-0.725 -10e-4,102.225 c -6e-4,56.22375 -0.2992,126.1875 -0.6636,155.475 l -0.6626,53.25 h -31.8364 -31.8364 z m 725.0003,-146.75 V 346.66546 h 23 23 v 120.49999 120.5 h -23 -23 z M 1500.813,433.7039 c -3.9426,-0.45072 -7.6551,-1.12032 -8.25,-1.48799 -0.7455,-0.4608 -1.0816,-12.77682 -1.0816,-39.64085 0,-36.18331 0.1252,-39.02245 1.75,-39.67209 0.9625,-0.38485 8.5,-0.70823 16.75,-0.71862 14.438,-0.0182 15.2145,0.0865 20.7259,2.79285 6.388,3.1369 9.5833,6.89302 10.9183,12.83448 1.0214,4.54591 -0.3157,10.87882 -3.1343,14.84461 l -1.7833,2.50917 3.9969,2.5 c 6.0675,3.79517 9.7554,10.92543 9.7671,18.88398 0.013,8.9376 -1.736,13.90065 -6.6242,18.79612 -3.0959,3.10041 -5.8911,4.71046 -10.822,6.23345 -7.7078,2.3807 -21.8278,3.31212 -32.2128,2.12489 z m 26.7065,-15.28844 c 8.4148,-4.24332 10.3078,-14.20051 3.6415,-19.15417 -2.3211,-1.7248 -4.5783,-2.15668 -12.75,-2.43954 l -9.9296,-0.3437 v 12.0937 12.09371 h 7.2881 c 5.5693,0 8.3404,-0.53062 11.75,-2.25 z m -5.2674,-37.42809 c 3.22,-2.40415 4.3584,-6.27042 3.1426,-10.6736 -1.1412,-4.13327 -4.2152,-5.64831 -11.4604,-5.64831 h -5.4529 v 8.83333 c 0,4.85834 0.3375,9.17678 0.75,9.59655 1.3365,1.36003 10.3246,-0.0951 13.0207,-2.10797 z m 160.9104,51.93353 c -4.3004,-0.18813 -7.6754,-0.6993 -7.5,-1.13593 0.1754,-0.43663 6.5812,-18.41714 14.235,-39.95669 l 13.9162,-39.16282 h 8.3338 c 6.1089,0 8.3339,0.34207 8.3339,1.28127 0,0.70469 6.3,18.57812 14,39.71873 7.7,21.14061 14,38.58092 14,38.75625 0,0.17534 -4.1359,0.18941 -9.191,0.0313 l -9.1909,-0.28753 -2.459,-8.24999 -2.459,-8.25 h -13.6214 -13.6215 l -2.7398,9 c -1.5069,4.94999 -3.0723,8.90943 -3.4786,8.79875 -0.4063,-0.11069 -4.2573,-0.35518 -8.5577,-0.54331 z m 36.3189,-32.84797 c 0,-1.22835 -7.285,-23.93905 -7.9005,-24.62955 -0.354,-0.39714 -2.4837,5.11536 -4.7325,12.25 l -4.0889,12.97208 h 8.361 c 4.5985,0 8.3609,-0.26664 8.3609,-0.59253 z m -156,-7.40747 v -40 h 22 22 v 7.75 7.75 l -14.0014,-0.32558 -13.9986,-0.32559 v 7.57559 7.57558 h 11 11 v 7.25 7.25 l -11.0021,-0.31238 -10.9979,-0.31239 v 10.56239 10.56238 h 15 15 l -0.011,3.75 c -0.01,2.0625 -0.2899,5.4375 -0.6308,7.5 l -0.6199,3.74999 h -22.3691 -22.3692 z m 73,6.90347 V 366.4724 l -9.5008,0.34653 -9.5007,0.34653 7e-4,-7.21957 8e-4,-7.21957 28.0006,-0.28043 28.0007,-0.28043 v 7.5 7.5 l -10.0022,-0.31641 -9.9991,-0.31642 v 33.06642 33.0664 h -8.5 -8.5 z"
       id="path1" />
  </g>
</svg>
